<?xml version="1.0" standalone="no"?>
<!DOCTYPE svg PUBLIC "-//W3C//DTD SVG 20010904//EN"
 "http://www.w3.org/TR/2001/REC-SVG-20010904/DTD/svg10.dtd">
<svg version="1.0" xmlns="http://www.w3.org/2000/svg"
 width="512.000000pt" height="512.000000pt" viewBox="0 0 512.000000 512.000000"
 preserveAspectRatio="xMidYMid meet">

<g transform="translate(0.000000,512.000000) scale(0.100000,-0.100000)"
fill="#FFFFFF" stroke="none">
<path d="M1650 3989 c-14 -6 -36 -20 -48 -32 -78 -72 -68 -185 21 -251 l28
-21 1444 0 c1442 0 1444 0 1471 21 53 39 69 71 69 134 0 63 -16 95 -69 134
-27 21 -30 21 -1459 23 -938 1 -1441 -2 -1457 -8z"/>
<path d="M575 2706 c-67 -29 -105 -106 -91 -181 9 -47 59 -102 104 -115 26 -8
641 -10 1994 -8 l1957 3 27 21 c53 39 69 71 69 134 0 63 -16 95 -69 134 l-27
21 -1967 2 c-1620 2 -1972 0 -1997 -11z"/>
<path d="M2495 1426 c-67 -29 -105 -106 -91 -181 9 -47 59 -102 104 -115 25
-8 353 -10 1034 -8 989 3 997 3 1024 24 53 39 69 71 69 134 0 63 -16 95 -69
134 -27 21 -35 21 -1034 23 -822 2 -1013 0 -1037 -11z"/>
</g>
</svg>
